<svg width="27" height="26" viewBox="0 0 27 26" fill="none" xmlns="http://www.w3.org/2000/svg">
<path d="M0 2.66667C0 1.95942 0.280951 1.28115 0.781048 0.781048C1.28115 0.280951 1.95942 0 2.66667 0H24C24.7072 0 25.3855 0.280951 25.8856 0.781048C26.3857 1.28115 26.6667 1.95942 26.6667 2.66667V17.3333C26.6667 18.0406 26.3857 18.7189 25.8856 19.219C25.3855 19.719 24.7072 20 24 20H14.6667V22.6667H18.6667C19.0203 22.6667 19.3594 22.8071 19.6095 23.0572C19.8595 23.3072 20 23.6464 20 24C20 24.3536 19.8595 24.6928 19.6095 24.9428C19.3594 25.1929 19.0203 25.3333 18.6667 25.3333H8C7.64638 25.3333 7.30724 25.1929 7.05719 24.9428C6.80714 24.6928 6.66667 24.3536 6.66667 24C6.66667 23.6464 6.80714 23.3072 7.05719 23.0572C7.30724 22.8071 7.64638 22.6667 8 22.6667H12V20H2.66667C1.95942 20 1.28115 19.719 0.781048 19.219C0.280951 18.7189 0 18.0406 0 17.3333V2.66667ZM24 17.3333V2.66667H2.66667V17.3333H24Z" fill="#0057E1"/>
</svg>
