<?xml version="1.0" encoding="UTF-8"?>
<!DOCTYPE svg PUBLIC "-//W3C//DTD SVG 1.1//EN" "http://www.w3.org/Graphics/SVG/1.1/DTD/svg11.dtd">
<!-- Creator: CorelDRAW 2020 (64-Bit) -->
<svg xmlns="http://www.w3.org/2000/svg" xml:space="preserve" width="66.6633mm" height="88.2129mm" version="1.1" style="shape-rendering:geometricPrecision; text-rendering:geometricPrecision; image-rendering:optimizeQuality; fill-rule:evenodd; clip-rule:evenodd"
viewBox="0 0 685.69 907.35"
 xmlns:xlink="http://www.w3.org/1999/xlink"
 xmlns:xodm="http://www.corel.com/coreldraw/odm/2003">
 <defs>
  <style type="text/css">
   <![CDATA[
    .str0 {stroke:#64C3EB;stroke-width:14.51;stroke-miterlimit:22.9256}
    .str1 {stroke:#4A154B;stroke-width:29.03;stroke-miterlimit:22.9256}
    .str3 {stroke:#C3375C;stroke-width:7.26;stroke-miterlimit:22.9256}
    .str2 {stroke:#E3B34C;stroke-width:7.26;stroke-miterlimit:22.9256}
    .fil3 {fill:none}
    .fil1 {fill:#4A154B}
    .fil0 {fill:#64C3EB}
    .fil4 {fill:#C3375C}
    .fil2 {fill:#E3B34C}
   ]]>
  </style>
 </defs>
 <g id="Слой_x0020_1">
  <metadata id="CorelCorpID_0Corel-Layer"/>
  <path class="fil0 str0" d="M35.7 174.66l139.51 0 0 50.57c0,25.76 27.9,25.75 27.9,0l0 -50.57 279.01 0 0 50.57c0,25.76 27.9,25.75 27.9,0l0 -50.57 139.5 0 0 697.52 -613.82 0 0 -697.52zm167.41 -27.9c0,-20.92 -0.15,-41.89 -0.03,-62.81 0.13,-22.08 6.5,-34.48 20.12,-42.66 18.43,-11.08 92.08,-6.14 119.42,-6.14 27.34,0 100.98,-4.94 119.42,6.14 13.61,8.18 19.99,20.58 20.12,42.66 0.12,20.91 -0.03,41.88 -0.03,62.81l-279.01 0zm-185.97 753.33l650.95 0c7.84,-8.14 9.27,-5.54 9.4,-20.84 1.83,-220.04 -0.06,-447.33 -0.06,-667.97 0,-65.95 12.74,-64.52 -52.31,-64.52 -38.36,0 -76.73,0 -115.09,0 0,-25.66 3.31,-76.54 -5.75,-97.12 -15.97,-36.28 -42.11,-36.37 -58.09,-42.38l-207.12 0c-13.79,5.19 -43.04,5.61 -58.61,43.61 -8.28,20.22 -5.23,70.72 -5.23,95.9 -38.95,0 -77.89,0 -116.84,0 -15.29,0 -44.91,-5.03 -49.6,9.57 -2.69,8.39 -0.97,600.58 -0.97,694.93 0,36.33 -3.93,35.05 9.34,48.83z"/>
  <path class="fil1 str1" d="M274.2 627.25c-7.68,-9.02 -18.28,-18.51 -27.17,-27.41 -9.43,-9.45 -17.61,-17.58 -27.03,-27.03 -18.7,-18.75 -36.23,-36.17 -54.93,-54.93 -6.6,-6.63 -20.34,-25.07 -33.34,-22.89 -7.43,1.25 -12.15,8.18 -9.75,17.1 2.53,9.38 106.44,109.63 121.35,124.57 33.29,33.36 28.04,33.17 61.03,0.23l247.58 -247.66c3.96,-3.95 11.2,-8.79 12.01,-16.02 0.93,-8.32 -8.44,-26.83 -28.77,-5.97l-150.83 150.85c-8.55,8.57 -103.06,104.66 -110.15,109.16z"/>
  <g id="_2264729222416">
   <path class="fil2 str2" d="M529.45 811.55c20.54,0 41.07,0 61.61,0 9.07,0 16.42,7.35 16.42,16.42 0,9.07 -7.35,16.42 -16.42,16.42 -20.54,0 -41.07,0 -61.61,0 -9.07,0 -16.42,-7.35 -16.42,-16.42 0,-9.07 7.35,-16.42 16.42,-16.42z"/>
  </g>
  <path class="fil3" d="M529.45 827.97c20.54,0 41.07,0 61.61,0"/>
  <g id="_2264729222656">
   <path class="fil4 str2" d="M576.87 827.87c0.13,-20.54 0.27,-41.07 0.4,-61.61 0.06,-9.07 7.46,-16.38 16.53,-16.32 9.07,0.06 16.37,7.46 16.31,16.53 -0.13,20.54 -0.27,41.07 -0.4,61.61 -0.06,9.07 -7.46,16.37 -16.53,16.32 -9.07,-0.06 -16.38,-7.46 -16.32,-16.53z"/>
  </g>
  <path class="fil3" d="M593.3 827.97c0.13,-20.54 0.27,-41.07 0.4,-61.61"/>
  <g id="_2264729223616">
   <path class="fil4 str3" d="M468.18 811.55c8.37,0.1 4.28,0.05 12.26,0.16 9.07,0 16.42,7.35 16.42,16.42 0,9.07 -7.35,16.42 -16.42,16.42 -8.39,-0.1 -4.3,-0.05 -12.26,-0.15 -9.07,0 -16.42,-7.35 -16.42,-16.42 0,-9.07 7.35,-16.42 16.42,-16.42z"/>
  </g>
  <path class="fil3" d="M468.18 827.97c4.02,0 8.19,0.16 12.26,0.16"/>
  <g id="_2264734987072">
   <path class="fil2 str2" d="M576.87 827.87c0.13,-20.54 0.27,-41.07 0.4,-61.61 0.06,-9.07 7.46,-16.38 16.53,-16.32 9.07,0.06 16.37,7.46 16.31,16.53 -0.13,20.54 -0.27,41.07 -0.4,61.61 -0.06,9.07 -7.46,16.37 -16.53,16.32 -9.07,-0.06 -16.38,-7.46 -16.32,-16.53z"/>
  </g>
  <path class="fil3" d="M593.3 827.97c0.13,-20.54 0.27,-41.07 0.4,-61.61"/>
 </g>
</svg>
