<svg width="27" height="27" viewBox="0 0 27 27" fill="none" xmlns="http://www.w3.org/2000/svg">
<g clip-path="url(#clip0)">
<path d="M13.988 21.3492C13.2029 21.3371 12.446 21.0549 11.8447 20.55L7.88503 17.0626C7.26195 16.4804 6.30915 16.4343 5.63274 16.9537L0.00209068 21.0949V23.7831C-0.0383771 24.5042 0.5135 25.1216 1.23462 25.162C1.27175 25.1641 1.30902 25.1646 1.34622 25.1635H21.2897C22.0889 25.1635 22.8881 24.5823 22.8881 23.7831V16.7357L15.7317 20.877C15.2056 21.1932 14.6018 21.3567 13.988 21.3492Z" fill="#F71651"/>
<path d="M13.6975 14.3018C14.5803 14.3018 15.2959 13.5862 15.2959 12.7034C15.2959 11.8206 14.5803 11.105 13.6975 11.105C12.8148 11.105 12.0991 11.8206 12.0991 12.7034C12.0991 13.5862 12.8148 14.3018 13.6975 14.3018Z" fill="#F71651"/>
<path d="M26.666 4.67516C26.4341 4.35921 26.0759 4.16021 25.6852 4.13024L5.88693 1.84165C5.50096 1.80932 5.11575 1.91202 4.79716 2.1323C4.515 2.37733 4.32316 2.7099 4.25223 3.07682L3.92529 5.91033H21.2896C22.9451 5.94788 24.2838 7.27053 24.3411 8.92546V21.7489C24.3411 21.6762 24.6681 21.6036 24.8134 21.4582C25.1142 21.222 25.2886 20.8598 25.2856 20.4774L26.9929 5.72865C27.0307 5.34768 26.9128 4.96769 26.666 4.67516Z" fill="#F71651"/>
<path d="M21.2896 7.3634H1.34608C0.546877 7.3634 0.00195312 8.12624 0.00195312 8.92545V19.2787L4.79711 15.7913C6.01434 14.8883 7.69827 14.9642 8.82942 15.9729L12.8254 19.4603C13.4279 19.9718 14.2886 20.0448 14.9686 19.6419L22.8879 15.0284V8.92545C22.833 8.07263 22.1435 7.3988 21.2896 7.3634ZM13.6972 15.7549C12.012 15.7549 10.6457 14.3887 10.6457 12.7034C10.6457 11.0182 12.0119 9.65192 13.6972 9.65192C15.3825 9.65192 16.7487 11.0181 16.7487 12.7034C16.7487 14.3887 15.3826 15.7549 13.6972 15.7549Z" fill="#F71651"/>
</g>
<defs>
<clipPath id="clip0">
<rect width="27" height="27" fill="white"/>
</clipPath>
</defs>
</svg>
