<svg width="27" height="25" viewBox="0 0 27 25" fill="none" xmlns="http://www.w3.org/2000/svg">
<path d="M13.988 20.3492C13.2029 20.3371 12.446 20.0549 11.8447 19.55L7.88503 16.0626C7.26195 15.4804 6.30915 15.4343 5.63274 15.9537L0.00209068 20.0949V22.7831C-0.0383771 23.5042 0.5135 24.1216 1.23462 24.162C1.27175 24.1641 1.30902 24.1646 1.34622 24.1635H21.2897C22.0889 24.1635 22.8881 23.5823 22.8881 22.7831V15.7357L15.7317 19.877C15.2056 20.1932 14.6018 20.3567 13.988 20.3492Z" fill="#656262"/>
<path d="M13.6975 13.3018C14.5803 13.3018 15.2959 12.5862 15.2959 11.7034C15.2959 10.8206 14.5803 10.105 13.6975 10.105C12.8148 10.105 12.0991 10.8206 12.0991 11.7034C12.0991 12.5862 12.8148 13.3018 13.6975 13.3018Z" fill="#656262"/>
<path d="M26.666 3.67516C26.4341 3.35921 26.0759 3.16021 25.6852 3.13024L5.88693 0.841652C5.50096 0.80932 5.11575 0.912019 4.79716 1.1323C4.515 1.37733 4.32316 1.7099 4.25223 2.07682L3.92529 4.91033H21.2896C22.9451 4.94788 24.2838 6.27053 24.3411 7.92546V20.7489C24.3411 20.6762 24.6681 20.6036 24.8134 20.4582C25.1142 20.222 25.2886 19.8598 25.2856 19.4774L26.9929 4.72865C27.0307 4.34768 26.9128 3.96769 26.666 3.67516Z" fill="#656262"/>
<path d="M21.2896 6.3634H1.34608C0.546877 6.3634 0.00195312 7.12624 0.00195312 7.92545V18.2787L4.79711 14.7913C6.01434 13.8883 7.69827 13.9642 8.82942 14.9729L12.8254 18.4603C13.4279 18.9718 14.2886 19.0448 14.9686 18.6419L22.8879 14.0284V7.92545C22.833 7.07263 22.1435 6.3988 21.2896 6.3634ZM13.6972 14.7549C12.012 14.7549 10.6457 13.3887 10.6457 11.7034C10.6457 10.0182 12.0119 8.65192 13.6972 8.65192C15.3825 8.65192 16.7487 10.0181 16.7487 11.7034C16.7487 13.3887 15.3826 14.7549 13.6972 14.7549Z" fill="#656262"/>
</svg>
