<svg width="28" height="25" viewBox="0 0 28 25" fill="none" xmlns="http://www.w3.org/2000/svg">
<path d="M27.6571 8.35684L16.0634 0.153712C15.8118 -0.0265384 15.4833 -0.0497805 15.211 0.0920242C14.937 0.232188 14.7656 0.513391 14.7656 0.821009V4.94423C6.55129 5.37199 0 12.19 0 20.5085V23.7898C0 24.1991 0.301219 24.5452 0.706563 24.6021C1.10212 24.6598 1.49538 24.4146 1.60858 24.0157L1.73513 23.5727C3.41742 17.6863 8.70619 13.4982 14.7656 13.1489V17.2273C14.7656 17.5349 14.9371 17.8161 15.2111 17.9562C15.4834 18.098 15.8119 18.0732 16.0634 17.8946L27.6572 9.69143C27.8719 9.5376 28.0001 9.28926 28.0001 9.02413C28.0001 8.75901 27.8718 8.51062 27.6571 8.35684Z" fill="#656262"/>
</svg>
