<svg width="28" height="25" viewBox="0 0 28 25" fill="none" xmlns="http://www.w3.org/2000/svg">
<path d="M0.34289 8.35684L11.9366 0.153712C12.1882 -0.0265384 12.5167 -0.0497805 12.789 0.0920242C13.063 0.232188 13.2344 0.513391 13.2344 0.821009V4.94423C21.4487 5.37199 28 12.19 28 20.5085V23.7898C28 24.1991 27.6988 24.5452 27.2934 24.6021C26.8979 24.6598 26.5046 24.4146 26.3914 24.0157L26.2649 23.5727C24.5826 17.6863 19.2938 13.4982 13.2344 13.1489V17.2273C13.2344 17.5349 13.0629 17.8161 12.7889 17.9562C12.5166 18.098 12.1881 18.0732 11.9366 17.8946L0.342836 9.69143C0.128134 9.5376 -5.34058e-05 9.28926 -5.34058e-05 9.02413C-5.34058e-05 8.75901 0.128187 8.51062 0.34289 8.35684Z" fill="#4E90F8"/>
</svg>
