<svg width="16" height="16" viewBox="0 0 16 16" fill="none" xmlns="http://www.w3.org/2000/svg">
<path d="M12.3945 0.648641C12.2003 0.452293 11.8838 0.450528 11.6874 0.644698L8.48774 3.80889C8.29139 4.00306 8.28963 4.31964 8.4838 4.51599C8.67797 4.71233 8.99455 4.7141 9.19089 4.51993L12.035 1.70731L14.8477 4.55147C15.0418 4.74781 15.3584 4.74958 15.5548 4.55541C15.7511 4.36124 15.7529 4.04466 15.5587 3.84831L12.3945 0.648641ZM12.4609 15.0028L12.539 1.00301L11.539 0.99743L11.4609 14.9972L12.4609 15.0028Z" fill="#3B7694"/>
<path d="M4.43357 15.3514C4.2394 15.5477 3.92282 15.5495 3.72647 15.3553L0.526803 12.1911C0.330455 11.9969 0.32869 11.6804 0.522861 11.484C0.717031 11.2877 1.03361 11.2859 1.22996 11.4801L4.07411 14.2927L6.88672 11.4485C7.08089 11.2522 7.39747 11.2504 7.59382 11.4446C7.79017 11.6388 7.79193 11.9553 7.59776 12.1517L4.43357 15.3514ZM4.49999 0.997212L4.57804 14.997L3.57806 15.0026L3.50001 1.00279L4.49999 0.997212Z" fill="#3B7694"/>
</svg>
